<mxfile host="app.diagrams.net" modified="2023-08-15T12:16:19.934Z" agent="Mozilla/5.0 (X11; Ubuntu; Linux x86_64; rv:109.0) Gecko/20100101 Firefox/116.0" etag="FM3DtVKG-qcyR9Zb1lv9" version="21.6.8" type="github">
  <diagram name="Page-1" id="40Rd6bJMbNPC47h-kUGu">
    <mxGraphModel dx="845" dy="467" grid="1" gridSize="10" guides="1" tooltips="1" connect="1" arrows="1" fold="1" page="1" pageScale="1" pageWidth="850" pageHeight="1100" math="0" shadow="0">
      <root>
        <mxCell id="0" />
        <mxCell id="1" parent="0" />
        <mxCell id="-jkcISJ10enlBrpcAVtu-1" value="" style="shape=image;html=1;verticalAlign=top;verticalLabelPosition=bottom;labelBackgroundColor=#ffffff;imageAspect=0;aspect=fixed;image=https://cdn2.iconfinder.com/data/icons/boxicons-solid-vol-2/24/bxs-pie-chart-alt-2-128.png" vertex="1" parent="1">
          <mxGeometry x="360" y="190" width="128" height="128" as="geometry" />
        </mxCell>
      </root>
    </mxGraphModel>
  </diagram>
</mxfile>
